<svg width="24" height="24" viewBox="0 0 24 24" fill="none" xmlns="http://www.w3.org/2000/svg">
<path d="M3.82498 3.39593C3.80231 3.50382 3.88208 3.63608 3.92266 3.73546C4.04064 4.02438 4.19736 4.30334 4.36965 4.56306C5.07279 5.62297 6.01489 6.52642 7.0293 7.28722C7.45095 7.60347 7.88731 7.89651 8.34498 8.15829C8.45685 8.22229 8.5717 8.2809 8.68451 8.34329C8.74607 8.37733 8.82393 8.42841 8.89672 8.42877C9.02001 8.42938 9.16813 8.28383 9.27869 8.2319C9.51664 8.12013 9.79997 8.0483 10.0639 8.06636C10.3122 8.08338 10.5424 8.14914 10.7641 8.26072C10.8638 8.31089 11.0091 8.44835 11.1249 8.42312C11.2955 8.3859 11.4834 8.25338 11.6342 8.16739C11.9925 7.96293 12.3384 7.74026 12.674 7.50045C13.7272 6.74782 14.7448 5.84738 15.4824 4.77527C15.7591 4.37299 16.0636 3.92127 16.1754 3.43837C16.0781 3.51709 16.008 3.62452 15.9204 3.71424C15.6727 3.96823 15.3843 4.21394 15.0507 4.34653C14.9453 4.38842 14.8267 4.43967 14.7112 4.43835C14.5465 4.43646 14.3793 4.20255 14.2655 4.09982C13.9618 3.8256 13.6206 3.58241 13.2682 3.37494C12.3012 2.80577 11.1999 2.53309 10.0851 2.48427C9.75545 2.46984 9.41355 2.51562 9.0877 2.56257C8.16982 2.69484 7.30385 3.00575 6.52 3.50316C6.26122 3.66738 6.0058 3.85279 5.77728 4.05737C5.65454 4.16726 5.50546 4.37002 5.35287 4.43154C5.22079 4.4848 5.00419 4.37759 4.88601 4.32308C4.48303 4.13712 4.04591 3.78369 3.82498 3.39593ZM4.39794 5.98485C4.29862 6.21533 4.16648 6.43188 4.06747 6.66391C3.86139 7.14687 3.70886 7.65264 3.622 8.17058C3.51855 8.78744 3.54911 9.41457 3.54911 10.038C3.54911 11.0483 3.55792 12.0673 3.46062 13.0725C3.34467 14.2708 3.07381 15.4684 2.64882 16.5952C2.45949 17.0971 2.20537 17.5661 2 18.0594C2.12792 18.0024 2.2308 17.8961 2.33953 17.809C2.53103 17.6556 2.72269 17.5024 2.91249 17.3469C3.1864 17.1224 3.46399 16.9019 3.74009 16.6801C3.88157 16.5664 4.05019 16.4606 4.16451 16.3193C4.43083 16.641 4.63117 17.0446 4.84788 17.4016C5.14017 17.883 5.46171 18.3521 5.73484 18.8446C5.9285 18.7081 6.09429 18.5209 6.26535 18.3573C6.47514 18.1567 6.69632 17.9673 6.90197 17.7623C7.005 17.6596 7.11618 17.5666 7.22028 17.4652C7.25746 17.429 7.30875 17.3603 7.36662 17.3603C7.44877 17.3603 7.51616 17.534 7.55304 17.5926C7.71233 17.8454 7.86654 18.1017 8.02266 18.3565C8.49151 19.1218 8.96176 19.8865 9.43623 20.6483C9.56364 20.8529 9.6875 21.0598 9.81597 21.2637C9.87546 21.3582 9.91974 21.4657 10.0214 21.5184C10.6389 20.5852 11.2063 19.6101 11.787 18.6536C11.9509 18.3836 12.1168 18.1144 12.2853 17.8472C12.39 17.6811 12.5297 17.5044 12.5891 17.3167C12.7322 17.3909 12.8316 17.5244 12.9499 17.6314C13.2434 17.897 13.5337 18.1686 13.8199 18.4422C13.9574 18.5737 14.0906 18.7422 14.2655 18.8233C14.6137 18.3069 14.9226 17.7613 15.2507 17.2318C15.4298 16.9427 15.6764 16.6388 15.7934 16.3193C16.0249 16.4724 16.2366 16.6649 16.4513 16.8408C16.8092 17.1342 17.1721 17.4223 17.5335 17.7114C17.6879 17.8349 17.8355 17.9716 18.0004 18.0806C17.9428 17.8807 17.8204 17.6946 17.73 17.5077C17.6066 17.2526 17.4947 16.9874 17.394 16.7225C17.0174 15.7325 16.744 14.6963 16.6058 13.6455C16.4628 12.5579 16.4513 11.4734 16.4513 10.3775C16.4513 9.65623 16.4894 8.92758 16.3786 8.21302C16.2998 7.70461 16.1532 7.20183 15.9542 6.72757C15.8481 6.47464 15.7077 6.23761 15.6024 5.98485H15.56C15.3798 6.30812 15.1129 6.59719 14.8719 6.87612C14.7794 6.98324 14.5892 7.11839 14.5503 7.25809C14.5206 7.36434 14.6586 7.54255 14.6984 7.64006C14.8103 7.91408 14.898 8.21143 14.9018 8.51011C14.9115 9.28037 14.4081 9.96947 13.735 10.306C13.3398 10.5036 12.9194 10.5685 12.483 10.5685C12.4848 10.7814 12.5365 10.9923 12.5458 11.2051C12.5499 11.2982 12.5194 11.4356 12.5685 11.5189C12.6034 11.5782 12.6809 11.6087 12.7377 11.6423C12.8642 11.7174 12.9928 11.7887 13.1196 11.8632C13.4295 12.0452 13.7416 12.2237 14.0533 12.4024C14.2348 12.5064 14.4129 12.629 14.6051 12.7118V12.7542C14.3109 12.8408 14.0228 13.0611 13.7562 13.2121C13.3618 13.4355 12.8976 13.6258 12.5687 13.9445C12.1437 14.3564 11.8505 14.9175 11.6064 15.4493C11.2403 16.2467 10.96 17.0738 10.6999 17.9109C10.5358 18.4391 10.3831 18.9707 10.2306 19.5024C10.1609 19.7456 10.0552 19.9943 10.0214 20.2451C9.95126 20.1712 9.93137 20.0659 9.90309 19.9693C9.85551 19.8066 9.81001 19.643 9.75953 19.4812C9.55507 18.8261 9.37571 18.1631 9.17205 17.5077C8.93177 16.7345 8.64888 15.9617 8.28656 15.2371C8.08596 14.8358 7.86571 14.4221 7.5579 14.0911C7.19333 13.6991 6.70778 13.4693 6.24413 13.2146C5.95657 13.0567 5.67529 12.8628 5.37409 12.733C5.8618 12.4345 6.36494 12.159 6.85953 11.872L7.26273 11.6385C7.31985 11.6054 7.39618 11.5754 7.4319 11.5165C7.48353 11.4313 7.45167 11.2798 7.45403 11.1839C7.45908 10.9779 7.50855 10.7742 7.51737 10.5685C6.50222 10.5685 5.45277 10.0704 5.1651 9.0194C5.1135 8.83088 5.09374 8.64155 5.09854 8.44644C5.10503 8.1814 5.18238 7.90373 5.28651 7.66128C5.33194 7.5555 5.46756 7.37731 5.44165 7.25809C5.41262 7.12461 5.21245 6.97566 5.12302 6.87612C4.96476 6.69996 4.81496 6.51261 4.67134 6.32438C4.58466 6.21076 4.50826 6.07597 4.39794 5.98485ZM6.26535 7.97959C6.18582 8.27099 6.08419 8.52657 6.19208 8.82842C6.48826 9.657 7.70437 9.66776 8.34498 9.29527C8.22788 9.19352 8.07645 9.13949 7.94179 9.06479C7.69718 8.92911 7.45645 8.78617 7.22028 8.63631C7.00267 8.4982 6.79303 8.34809 6.58366 8.19795C6.47915 8.12302 6.38434 8.02995 6.26535 7.97959ZM13.6926 7.97959C13.0783 8.51119 12.3506 8.86829 11.6554 9.27405C11.7792 9.39921 11.9954 9.45589 12.1647 9.49035C12.6424 9.58761 13.1895 9.51894 13.5644 9.1828C13.8698 8.90901 13.9885 8.3084 13.6926 7.97959ZM7.49615 12.6906V12.733C8.5598 13.2992 9.15537 14.4024 9.55343 15.4917C9.65294 15.764 9.74385 16.0424 9.8299 16.3193C9.87921 16.4781 9.91121 16.666 10.0002 16.8074C10.0914 16.6581 10.1297 16.4451 10.179 16.2769C10.2499 16.0347 10.3334 15.7931 10.4181 15.5554C10.7117 14.7303 11.0942 13.952 11.7191 13.3272C11.9475 13.0988 12.2097 12.8723 12.5042 12.733V12.6906C12.2763 12.5923 12.06 12.4477 11.8464 12.3214C11.7308 12.2531 11.6064 12.2018 11.5427 12.0752C11.4966 11.9835 11.5069 11.8775 11.5069 11.7781C11.5069 11.603 11.5198 11.422 11.5033 11.2476C11.4375 10.5567 11.2813 9.86252 10.7217 9.39618C10.4629 9.18051 10.171 9.06157 9.83043 9.11065C9.57705 9.14719 9.35063 9.31208 9.17261 9.48658C8.71159 9.93845 8.53838 10.5778 8.49543 11.2051C8.48293 11.3875 8.49352 11.574 8.49352 11.7569C8.49352 11.8554 8.50388 11.9624 8.46014 12.054C8.39402 12.1925 8.25812 12.2568 8.13277 12.3301C7.92492 12.4515 7.71719 12.5953 7.49615 12.6906Z" fill="black"/>
</svg>
