<svg width="24" height="24" viewBox="0 0 24 24" fill="none" xmlns="http://www.w3.org/2000/svg">
<path fill-rule="evenodd" clip-rule="evenodd" d="M19.8888 4.31101C20.1394 4.20554 20.4136 4.16916 20.6831 4.20567C20.9525 4.24217 21.2072 4.35022 21.4207 4.51857C21.6342 4.68692 21.7986 4.90941 21.897 5.16289C21.9953 5.41637 22.0239 5.69157 21.9797 5.95984L19.6799 19.91C19.4568 21.2557 17.9804 22.0273 16.7463 21.3571C15.714 20.7963 14.1807 19.9323 12.8016 19.0308C12.1121 18.5796 9.99984 17.1346 10.2594 16.1063C10.4825 15.2272 14.0317 11.9234 16.0598 9.95922C16.8558 9.18754 16.4928 8.74237 15.5527 9.4522C13.2184 11.2146 9.47051 13.8947 8.23135 14.6492C7.13821 15.3144 6.56832 15.428 5.88689 15.3144C4.64367 15.1075 3.4907 14.7871 2.54967 14.3967C1.27806 13.8694 1.33992 12.1212 2.54866 11.6121L19.8888 4.31101Z" fill="black"/>
</svg>
